# xmcd
#
# Track frame offsets:
#	150
#	17427
#	38559
#	61119
#	90663
#	99939
#	119571
#
# Disc length: 1784 seconds
#
# Revision: 1
# Processed by: cddbd v1.5.2PL0 Copyright (c) Steve Scherf et al.
# Submitted via: audiograbber 1.83.01
#
DISCID=4706f607
DTITLE=Goodbye Sons - Live From Bristow Cave
DYEAR=2005
DGENRE=Country Rock
TTITLE0=Delicious Descent
TTITLE1=Cemetery Tree
TTITLE2=Wooden Mile Marker
TTITLE3=Serve And Deserve
TTITLE4=Bitch Wolf
TTITLE5=By The Time This Car Is Paid For
TTITLE6=The Brown And The Green
EXTD=
EXTT0=
EXTT1=
EXTT2=
EXTT3=
EXTT4=
EXTT5=
EXTT6=
PLAYORDER=
